<svg width="19" height="19" viewBox="0 0 19 19" fill="none" xmlns="http://www.w3.org/2000/svg">
<path d="M16.4 18.025L10.925 12.55L13.025 10.45L18.5 15.925L16.4 18.025ZM2.6 18.025L0.5 15.925L7.4 9.025L5.7 7.325L5 8.025L3.725 6.75V8.8L3.025 9.5L0 6.475L0.7 5.775H2.75L1.5 4.525L5.05 0.975C5.38333 0.641667 5.74167 0.4 6.125 0.25C6.50833 0.1 6.9 0.025 7.3 0.025C7.7 0.025 8.09167 0.1 8.475 0.25C8.85833 0.4 9.21667 0.641667 9.55 0.975L7.25 3.275L8.5 4.525L7.8 5.225L9.5 6.925L11.75 4.675C11.6833 4.49167 11.6292 4.3 11.5875 4.1C11.5458 3.9 11.525 3.7 11.525 3.5C11.525 2.51667 11.8625 1.6875 12.5375 1.0125C13.2125 0.3375 14.0417 0 15.025 0C15.275 0 15.5125 0.025 15.7375 0.075C15.9625 0.125 16.1917 0.2 16.425 0.3L13.95 2.775L15.75 4.575L18.225 2.1C18.3417 2.33333 18.4208 2.5625 18.4625 2.7875C18.5042 3.0125 18.525 3.25 18.525 3.5C18.525 4.48333 18.1875 5.3125 17.5125 5.9875C16.8375 6.6625 16.0083 7 15.025 7C14.825 7 14.625 6.98333 14.425 6.95C14.225 6.91667 14.0333 6.85833 13.85 6.775L2.6 18.025Z" fill="#FF8400"/>
</svg>
